<svg width="60" height="57" viewBox="0 0 60 57" fill="none" xmlns="http://www.w3.org/2000/svg">
<g id="113">
<path id="icon" d="M15.1307 10.7927L14.1553 9.87479C13.1798 8.95685 11.6041 8.98039 10.6537 9.87479L10.6287 9.89832C9.65321 10.8163 9.65321 12.2991 10.6287 13.1935L11.6041 14.1114C12.5795 15.0293 14.1302 15.0293 15.1057 14.1114L15.1307 14.0879C16.1061 13.1935 16.1061 11.6871 15.1307 10.7927ZM7.52725 25.7621H4.97609C3.60046 25.7621 2.49996 26.7977 2.49996 28.0923V28.1158C2.49996 29.4103 3.60046 30.4459 4.97609 30.4459H7.50224C8.90287 30.4695 10.0034 29.4339 10.0034 28.1393V28.1158C10.0034 26.7977 8.90287 25.7621 7.52725 25.7621ZM30.0375 2.34302H30.0125C28.6118 2.34302 27.5113 3.37864 27.5113 4.67316V6.93269C27.5113 8.22721 28.6118 9.26283 29.9875 9.26283H30.0125C31.4131 9.28637 32.5136 8.25075 32.5136 6.95623V4.67316C32.5136 3.37864 31.4131 2.34302 30.0375 2.34302ZM49.3963 9.89832C48.4208 8.98039 46.8451 8.98039 45.8697 9.87479L44.8942 10.7927C43.9188 11.7107 43.9188 13.1935 44.8942 14.0879L44.9192 14.1114C45.8947 15.0293 47.4704 15.0293 48.4208 14.1114L49.3963 13.1935C50.3717 12.2755 50.3717 10.8163 49.3963 9.89832ZM44.8692 45.4389L45.8447 46.3568C46.8201 47.2747 48.3958 47.2747 49.3713 46.3568C50.3467 45.4389 50.3467 43.956 49.3713 43.0381L48.3958 42.1202C47.4204 41.2022 45.8447 41.2258 44.8942 42.1202C43.8938 43.0616 43.8938 44.5209 44.8692 45.4389ZM50.0216 28.0923V28.1158C50.0216 29.4103 51.1221 30.4459 52.4977 30.4459H55.0238C56.3995 30.4459 57.5 29.4103 57.5 28.1158V28.0923C57.5 26.7977 56.3995 25.7621 55.0238 25.7621H52.4977C51.1221 25.7621 50.0216 26.7977 50.0216 28.0923ZM30.0125 13.9937C21.7337 13.9937 15.0056 20.3251 15.0056 28.1158C15.0056 35.9065 21.7337 42.2379 30.0125 42.2379C38.2912 42.2379 45.0193 35.9065 45.0193 28.1158C45.0193 20.3251 38.2912 13.9937 30.0125 13.9937ZM29.9875 53.8886H30.0125C31.3881 53.8886 32.4886 52.8529 32.4886 51.5584V49.2989C32.4886 48.0044 31.3881 46.9688 30.0125 46.9688H29.9875C28.6118 46.9688 27.5113 48.0044 27.5113 49.2989V51.5584C27.5113 52.8529 28.6118 53.8886 29.9875 53.8886ZM10.6287 46.3333C11.6041 47.2512 13.1798 47.2512 14.1553 46.3333L15.1307 45.4153C16.1061 44.4974 16.0811 43.0146 15.1307 42.1202L15.1057 42.0966C14.1302 41.1787 12.5545 41.1787 11.5791 42.0966L10.6036 43.0146C9.65321 43.956 9.65321 45.4153 10.6287 46.3333Z" fill="white"/>
</g>
</svg>
